<!-- Generator: Adobe Illustrator 22.0.1, SVG Export Plug-In . SVG Version: 6.00 Build 0)  -->
<svg version="1.1" id="Capa_1" xmlns="http://www.w3.org/2000/svg" xmlns:xlink="http://www.w3.org/1999/xlink" x="0px" y="0px"
	 viewBox="0 0 150 150" style="enable-background:new 0 0 150 150;" xml:space="preserve">
<style type="text/css">
	.st0{fill:url(#SVGID_1_);stroke:#258EE5;stroke-width:2;stroke-miterlimit:10;}
	.st1{fill:url(#SVGID_2_);stroke:#39B54A;stroke-width:2;stroke-miterlimit:10;}
</style>
<linearGradient id="SVGID_1_" gradientUnits="userSpaceOnUse" x1="32.7406" y1="120.0662" x2="117.5376" y2="34.7426">
	<stop  offset="3.004074e-07" style="stop-color:#2E3192"/>
	<stop  offset="1" style="stop-color:#22B573"/>
</linearGradient>
<path class="st0" d="M7,81.5l27.4,49l23.2-49.7l25.3,53.4l43-99.9c0,0-0.5-15.4-13.2-5.8l-31.9,76.3L56.7,54.6l-24.5,56.1L7,81.5z"
	/>
<linearGradient id="SVGID_2_" gradientUnits="userSpaceOnUse" x1="44.8884" y1="-547.2216" x2="44.4946" y2="-612.5156" gradientTransform="matrix(-0.9994 -3.573580e-02 3.573580e-02 -0.9994 181.1954 -536.478)">
	<stop  offset="2.002716e-07" style="stop-color:#00A99D"/>
	<stop  offset="1" style="stop-color:#FCEE21"/>
</linearGradient>
<path class="st1" d="M114.6,74c0,0-3.5-25.2-13.7-19.4c0,0,5.3-11.4-17.7-15.3c0,0,16.9,1.1,18.9-13.9c0,0,12.6,5,14.7-16.7
	c0,0-0.6,19.8,13.7,18c0,0-6.9,11.1,18,15c0,0-18.2-0.8-19,13.2C129.5,55,118,49.6,114.6,74z"/>
</svg>

