<?xml version="1.0" encoding="utf-8"?>
<!-- Generator: Adobe Illustrator 22.0.1, SVG Export Plug-In . SVG Version: 6.00 Build 0)  -->
<svg version="1.1" id="Capa_1" xmlns="http://www.w3.org/2000/svg" xmlns:xlink="http://www.w3.org/1999/xlink" x="0px" y="0px"
	 viewBox="0 0 24 24" style="enable-background:new 0 0 24 24;" xml:space="preserve">
<style type="text/css">
	.st0{fill:#d8e800;}
</style>
<path class="st0" d="M22,6H2C0.9,6,0,5.1,0,4v0c0-1.1,0.9-2,2-2h20c1.1,0,2,0.9,2,2v0C24,5.1,23.1,6,22,6z M22,10H2
	c-1.1,0-2,0.9-2,2v0c0,1.1,0.9,2,2,2h20c1.1,0,2-0.9,2-2v0C24,10.9,23.1,10,22,10z M22,18H2c-1.1,0-2,0.9-2,2v0c0,1.1,0.9,2,2,2h20
	c1.1,0,2-0.9,2-2v0C24,18.9,23.1,18,22,18z"/>
</svg>
