<?xml version="1.0" encoding="utf-8"?>
<!-- Generator: Adobe Illustrator 16.0.0, SVG Export Plug-In . SVG Version: 6.00 Build 0)  -->
<!DOCTYPE svg PUBLIC "-//W3C//DTD SVG 1.1//EN" "http://www.w3.org/Graphics/SVG/1.1/DTD/svg11.dtd">
<svg version="1.1" id="Layer_1" xmlns="http://www.w3.org/2000/svg" xmlns:xlink="http://www.w3.org/1999/xlink" x="0px" y="0px"
	 width="400px" height="250px" viewBox="0 0 400 250" enable-background="new 0 0 400 250" xml:space="preserve">
<g>
	<g>
		<path d="M139.517,38.174c-9.81,4.157-17.446,13.582-23.898,21.681c-9.626,12.084-17.838,25.313-25.143,38.907
			c-7.235,13.463-13.612,27.576-17.994,42.24c-2.914,9.752-5.962,21.879-2.533,31.895c2.249,6.566,7.802,10.054,14.576,10.394
			c11.05,0.554,21.273-5.572,29.256-12.557c12.308-10.77,22.03-24.756,30.675-38.515c7.876-12.535,15.132-25.869,19.907-39.929
			c0.825-2.429-2.229-4.769-4.362-3.354c-19.929,13.229-36.823,34.57-36.124,59.564c0.043,1.539,1.397,3.336,3.123,3.122
			c18.134-2.247,31.316-16.388,40.396-31.259c9.785-16.025,15.565-35.071,15.982-53.863c0.021-0.973-1.566-1.226-1.727-0.234
			c-2.688,16.671-9.46,32.891-17.796,47.489c-8.224,14.402-20.461,28.917-37.686,31.734c1.317,1.004,2.635,2.007,3.953,3.011
			c-1.508-22.494,14.053-43.576,32.876-54.436c-1.454-1.118-2.908-2.235-4.362-3.354c-7.438,18.103-18.185,35.289-29.419,51.235
			c-9.862,13.999-22.079,30.078-39.595,34.214c-26.044,6.15-12.131-35.97-8.177-47.043c6.922-19.379,16.552-37.958,27.706-55.226
			c4.954-7.67,10.342-15.102,16.459-21.891c4.237-4.703,9.038-9.508,14.873-12.173C141.616,39.309,140.629,37.702,139.517,38.174
			L139.517,38.174z"/>
	</g>
</g>
<g>
	<g>
		<path d="M156.219,155.128c3.43-5.525,6.212-11.054,8.894-16.978c0.545-1.205-0.553-2.321-1.764-1.764
			c-8.265,3.808-15.01,12.369-19.054,20.303c-4.232,8.304-5.317,17.708-3.21,26.752c0.539,2.313,3.254,3.144,5.201,2.116
			c15.137-7.987,23.205-24.82,27.284-40.711c0.733-2.856-3.238-5.735-5.323-3.099c-4.887,6.181-7.409,13.872-3.85,21.188
			c0.73,1.501,2.973,1.007,3.391-0.443c1.705-5.903,0.335-11.212,4.963-16.241c-1.774-1.033-3.549-2.065-5.323-3.099
			c-4.741,14.007-11.284,28.703-24.716,36.289c1.734,0.706,3.468,1.411,5.201,2.116c-2.423-7.945-1.619-15.924,1.634-23.519
			c3.474-8.114,9.422-13.435,15.364-19.629c-0.734-0.304-1.467-0.607-2.201-0.911c0.347,6.473-3.889,11.941-6.93,17.372
			C155.62,155.158,156.047,155.406,156.219,155.128L156.219,155.128z"/>
	</g>
</g>
<g>
	<g>
		<path d="M169.747,145.353c-2.19,4.354-2.014,9.509-2.312,14.316c-0.47,7.577-1.188,16.404,1.571,23.656
			c0.778,2.046,3.48,3.238,5.189,1.37c11.768-12.856,21.29-27.923,29.174-43.419c7.73-15.195,14.719-32.904,13.18-50.276
			c-0.206-2.326-3.363-4.452-5.205-2.156c-9.69,12.089-15.54,26.757-19.314,41.672c-3.782,14.944-5.792,31.874-1.298,46.885
			c0.645,2.152,3.024,3.068,4.979,2.025c8.593-4.585,12.807-12.421,15.691-21.402c0.726-2.261-2.38-3.246-3.605-1.521
			c-4.544,6.398-8.406,13.2-15.508,17.069c1.66,0.675,3.32,1.351,4.979,2.025c-4.171-13.499-2.417-28.438,0.587-41.987
			c3.119-14.069,8.366-29.298,17.801-40.456c-1.735-0.719-3.47-1.437-5.205-2.156c1.015,16.289-5.87,32.553-12.945,46.849
			c-7.487,15.129-16.939,29.458-27.701,42.456c1.625,0.209,3.251,0.419,4.876,0.628c-2.798-6.384-2.763-14.424-3.109-21.264
			c-0.237-4.68,0.485-9.839-1.289-14.247C170.197,145.21,169.874,145.101,169.747,145.353L169.747,145.353z"/>
	</g>
</g>
<g>
	<g>
		<path d="M208.927,145.165c-5.523,9.604-8.645,21.691-5.714,32.604c0.593,2.205,3.236,2.677,4.831,1.275
			c13.536-11.899,22.912-28.921,29.691-45.381c7.021-17.048,12.423-35.585,12.269-54.163c-0.03-3.561-4.741-3.865-5.9-0.798
			c-6.772,17.926-16.767,34.478-23.51,52.453c-5.508,14.682-11.844,38.277,2.521,50.231c2.083,1.734,4.87,1.509,6.41-0.826
			c2.865-4.344,3.771-8.68,5.096-13.613c0.441-1.646-1.599-2.791-2.808-1.634c-3.314,3.171-5.6,6.994-8.698,10.302
			c1.924,0,3.848,0,5.771,0c-11.099-13.24-5.354-31.555-0.138-46.162c6.009-16.826,15.176-32.334,21.148-49.154
			c-1.967-0.266-3.934-0.532-5.9-0.798c1.266,35.371-17.061,69.716-40.04,95.456c1.61,0.426,3.221,0.851,4.831,1.275
			c-4.104-10.325-1.453-20.289,1.354-30.555C210.339,144.949,209.304,144.509,208.927,145.165L208.927,145.165z"/>
	</g>
</g>
<g>
	<g>
		<path d="M234.461,167.461c5.663-5.146,10.681-13.064,12.333-20.553c0.848-3.842-4.079-5.869-6.244-2.633
			c-3.833,5.733-7.48,11.04-8.669,17.973c-1.011,5.897,0.111,11.878,1.441,17.628c0.652,2.824,4.63,3.18,6.023,0.787
			c4.342-7.457,11.586-12.71,15.521-20.487c-2.023-0.265-4.046-0.528-6.069-0.793c-0.266-1.952-0.429,0.724-0.603,1.405
			c-0.301,1.171-0.648,2.9-0.212,4.086c0.902,2.445,2.756,3.879,5.449,3.485c8.146-1.188,10.277-9.499,15.782-14.144
			c1.628-1.374-0.447-3.396-2.082-2.7c-3.84,1.637-6.323,4.706-9.298,7.501c-1.116,1.05-2.445,1.836-3.868,2.392
			c0.918-0.358,0.095,3.563,0.851,0.327c0.338-1.444,0.587-2.627,0.385-4.118c-0.392-2.873-4.859-3.185-6.069-0.793
			c-3.919,7.745-11.163,13.03-15.479,20.513c2.008,0.262,4.016,0.524,6.023,0.787c-2.622-11.136-1.754-20.858,6.238-29.708
			c-1.903-1.108-3.807-2.216-5.71-3.324c-2.665,6.969-8.24,12.59-10.381,19.671C228.986,167.54,232.486,169.257,234.461,167.461
			L234.461,167.461z"/>
	</g>
</g>
<g>
	<g>
		<path d="M262.438,148.372c-1.583,3.073-1.435,6.623-2.122,9.979c-1.175,5.734-3.499,11.191-7.262,15.703
			c1.811,1.397,3.621,2.794,5.431,4.19c4.936-10.336,12.587-16.121,23.125-20.251c9.242-3.623,18.695-5.761,27.208-11.095
			c1.58-0.99,0.546-3.368-1.249-2.963c-20.276,4.583-44.907,10.42-55.055,30.818c-1.661,3.338,2.731,7.323,5.431,4.19
			c4.126-4.791,6.84-10.037,8.329-16.185c1.037-4.285,1.92-10.512-0.596-14.389C264.955,147.255,263.116,147.057,262.438,148.372
			L262.438,148.372z"/>
	</g>
</g>
<g>
	<g>
		<path d="M202.5,103.816c-14.191,1.682-22.49,10.511-23.847,24.684c-0.104,1.094,0.808,1.917,1.723,2.263
			c19.795,7.489,41.113-0.639,59.743-7.781c10.408-3.99,20.775-8.121,31.594-10.886c11.265-2.879,22.175-2.769,33.607-1.128
			c2.61,0.375,4.836-3.335,1.971-4.677c-19.696-9.224-43.63,0.673-62.291,8.063c-19.922,7.889-41.603,18.04-63.376,11.884
			c0.574,0.754,1.148,1.509,1.723,2.263c0.117-12.651,7.123-20.617,19.335-23.341C203.425,104.994,203.271,103.725,202.5,103.816
			L202.5,103.816z"/>
	</g>
</g>
<g>
	<g>
		<path d="M138.244,169.615c-23.45-6.49-46.382,3.938-57.88,25.171c-8.472,15.646-4.741,34.803,12.592,41.89
			c12.278,5.02,26.563,3.187,39.175,0.582c17.408-3.596,34.173-10.149,50.458-17.141c38.991-16.738,74.976-38.561,111.34-60.172
			c3.173-1.886,0.394-6.472-2.859-4.891c-27.456,13.348-53.552,29.388-80.742,43.271c-17.139,8.752-34.625,16.926-52.703,23.557
			c-14.762,5.415-30.457,10.269-46.304,10.551c-13.913,0.248-29.408-5.693-29.053-22.161c0.236-10.932,7.815-21.189,15.658-28.126
			c10.666-9.435,25.953-13.036,39.83-10.762C138.9,171.572,139.408,169.937,138.244,169.615L138.244,169.615z"/>
	</g>
</g>
<g>
	<g>
		<path d="M138.323,40.304c2.721,1.214,4.872-0.579,7.918,0.995c-0.102-0.787-0.203-1.574-0.305-2.361
			c-20.177,16.474-43.948,27.394-65.875,41.202c-23.09,14.54-42.02,33.027-54.242,57.67c-0.777,1.567,1.522,2.943,2.361,1.381
			c13.114-24.423,33.01-42.214,56.391-56.567c21.639-13.284,44.27-24.708,63.492-41.561c0.69-0.605,0.544-1.96-0.305-2.361
			c-3.482-1.646-6.652-1.583-9.507,1.05C138.097,39.894,138.118,40.212,138.323,40.304L138.323,40.304z"/>
	</g>
</g>
</svg>
